<?xml version="1.0" encoding="iso-8859-1"?>
<!-- Generator: Adobe Illustrator 19.0.0, SVG Export Plug-In . SVG Version: 6.00 Build 0)  -->
<svg version="1.1" id="Capa_1" xmlns="http://www.w3.org/2000/svg" xmlns:xlink="http://www.w3.org/1999/xlink" x="0px" y="0px"
	 viewBox="0 0 490.667 490.667" style="enable-background:new 0 0 490.667 490.667;" xml:space="preserve">
<g>
	<g>
		<path d="M462.784,209.045c-7.552-5.568-16.981-12.523-18.219-17.131c-1.344-5.056,3.456-16.128,7.339-25.024
			c6.656-15.275,13.525-31.104,5.888-44.267c-7.701-13.333-25.003-15.296-41.707-17.173c-9.536-1.067-21.397-2.389-24.939-5.952
			c-3.563-3.563-4.885-15.424-5.952-24.939c-1.877-16.704-3.819-33.984-17.173-41.707c-11.605-6.741-28.8-0.853-44.267,5.888
			c-8.533,3.712-17.451,7.253-25.045,7.339c-4.608-1.237-11.541-10.667-17.131-18.219C271.979,14.805,261.077,0,245.333,0
			c-15.723,0-26.645,14.805-36.267,27.861c-5.589,7.573-12.523,17.003-19.051,18.432c-5.76,0-14.592-3.84-23.125-7.552
			c-15.509-6.741-32.725-12.565-44.245-5.888c-13.376,7.723-15.317,25.003-17.195,41.728c-1.067,9.536-2.389,21.376-5.931,24.939
			c-3.563,3.541-15.424,4.885-24.939,5.931c-16.725,1.877-34.027,3.84-41.728,17.173c-7.616,13.163-0.747,28.971,5.888,44.267
			c3.883,8.896,8.704,19.989,7.339,25.045c-1.237,4.608-10.645,11.563-18.219,17.131C14.805,218.667,0,229.589,0,245.333
			S14.805,272,27.883,281.621c7.552,5.568,16.981,12.523,18.219,17.131c1.344,5.056-3.456,16.128-7.339,25.024
			c-6.656,15.275-13.525,31.104-5.888,44.267c7.701,13.333,25.003,15.296,41.707,17.173c9.536,1.067,21.397,2.389,24.939,5.952
			c3.563,3.563,4.885,15.424,5.952,24.939c1.877,16.704,3.819,33.984,17.173,41.707c11.541,6.72,28.736,0.853,44.245-5.888
			c8.533-3.712,17.301-7.488,25.045-7.339c4.608,1.237,11.541,10.667,17.131,18.219c9.621,13.056,20.523,27.861,36.267,27.861
			c15.723,0,26.645-14.805,36.267-27.861c5.589-7.573,12.523-17.003,19.051-18.453c5.76,0,14.592,3.84,23.125,7.552
			c15.552,6.741,32.725,12.587,44.245,5.909c13.376-7.723,15.317-25.003,17.195-41.728c1.067-9.536,2.389-21.376,5.931-24.939
			c3.563-3.563,15.424-4.885,24.939-5.952c16.725-1.877,34.027-3.819,41.728-17.173c7.616-13.163,0.747-28.971-5.888-44.267
			c-3.883-8.896-8.683-19.989-7.339-25.024c1.237-4.608,10.645-11.563,18.219-17.131c13.056-9.6,27.861-20.523,27.861-36.267
			S475.861,218.667,462.784,209.045z M192,288c0,4.587-2.944,8.661-7.296,10.112c-1.109,0.384-2.24,0.555-3.371,0.555
			c-3.285,0-6.485-1.536-8.533-4.267L128,234.667V288c0,5.888-4.779,10.667-10.667,10.667s-10.667-4.779-10.667-10.667v-85.333
			c0-4.587,2.944-8.661,7.296-10.112c4.331-1.472,9.152,0.043,11.904,3.712l44.8,59.733v-53.333c0-5.888,4.779-10.667,10.667-10.667
			S192,196.779,192,202.667V288z M266.667,234.667c5.888,0,10.667,4.779,10.667,10.667S272.555,256,266.667,256h-32v21.333h32
			c5.888,0,10.667,4.779,10.667,10.667s-4.779,10.667-10.667,10.667H224c-5.888,0-10.667-4.779-10.667-10.667v-85.333
			c0-5.888,4.779-10.667,10.667-10.667h42.667c5.888,0,10.667,4.779,10.667,10.667s-4.779,10.667-10.667,10.667h-32v21.333H266.667z
			 M405.013,205.248l-21.333,85.333c-1.152,4.608-5.205,7.893-9.941,8.064c-0.149,0-0.299,0-0.427,0
			c-4.587,0-8.661-2.923-10.133-7.296L352,257.728l-11.2,33.643c-1.493,4.48-5.184,7.488-10.539,7.275
			c-4.736-0.171-8.789-3.477-9.941-8.064l-21.333-85.333c-1.408-5.717,2.048-11.499,7.765-12.928
			c5.611-1.451,11.499,2.027,12.928,7.765l12.437,49.792l9.749-29.248c2.923-8.704,17.344-8.704,20.245,0l9.749,29.248
			l12.437-49.792c1.408-5.739,7.168-9.195,12.928-7.765C402.987,193.749,406.443,199.552,405.013,205.248z"/>
	</g>
</g>
<g>
</g>
<g>
</g>
<g>
</g>
<g>
</g>
<g>
</g>
<g>
</g>
<g>
</g>
<g>
</g>
<g>
</g>
<g>
</g>
<g>
</g>
<g>
</g>
<g>
</g>
<g>
</g>
<g>
</g>
</svg>
